<svg xmlns="http://www.w3.org/2000/svg" width="1920" height="1260" viewBox="0 0 1920 1260">
  <defs>
    <style>
      .cls-1 {
        fill-rule: evenodd;
      }
    </style>
  </defs>
  <path id="Color_Fill_1" data-name="Color Fill 1" class="cls-1" d="M0,0H1920V803l-178,3c9.36-15.1,21.96-39.308,25-59,4.37-28.322-28.6-69.12-43-78q-14.505-3.5-29-7l-22-6-58,21c3.47-22.978,5.19-40.5-2-61l-72-10-61-1c-34.07-5.1-81.14-5.3-116,0l-160,3c-44.2,3.754-145.59-5.627-170,13q1.5,40,3,80,7.005,52.494,14,105l-75-3-44-12-45,12H781l-41-9-89,12-55,1-109,1-39-17-47,13H85l-74,1L0,803V0ZM1604,799l6-36q11.505-10,23-20,7.995-18.5,16-37,18.495-6,37-12c19.24,13.937,31.64,14.839,46,35C1733.57,811.264,1681.78,800.369,1604,799Z"/>
</svg>
